<svg xmlns="http://www.w3.org/2000/svg" viewBox="0 0 960 920" width="100%" height="100%">
  <rect width="960" height="920" fill="#121214" rx="8"/>
  
  <defs>
    <marker id="arrow" viewBox="0 0 10 10" refX="6" refY="5" markerWidth="6" markerHeight="6" orient="auto-start-reverse">
      <path d="M 0 1.5 L 8 5 L 0 8.5 z" fill="#64748b"/>
    </marker>
    <marker id="arrow-cyan" viewBox="0 0 10 10" refX="6" refY="5" markerWidth="6" markerHeight="6" orient="auto-start-reverse">
      <path d="M 0 1.5 L 8 5 L 0 8.5 z" fill="#3b82f6"/>
    </marker>
    <marker id="arrow-error" viewBox="0 0 10 10" refX="6" refY="5" markerWidth="6" markerHeight="6" orient="auto-start-reverse">
      <path d="M 0 1.5 L 8 5 L 0 8.5 z" fill="#dc2626"/>
    </marker>
    
  </defs>

  <style>
    .title { font-family: 'Source Sans 3', 'Segoe UI', sans-serif; font-weight: 700; font-size: 22px; fill: #f8fafc; letter-spacing: 0.3px; }
    .subtitle { font-family: 'Source Sans 3', 'Segoe UI', sans-serif; font-size: 13px; fill: #94a3b8; }
    .node-text-title { font-family: 'Source Sans 3', 'Segoe UI', sans-serif; font-weight: 700; font-size: 12px; fill: #f8fafc; }
    .node-text-ch { font-family: 'IBM Plex Mono', 'Consolas', monospace; font-size: 12px; font-weight: 600; fill: #93c5fd; }
    .data-text { font-family: 'IBM Plex Mono', 'Consolas', monospace; font-size: 13px; font-weight: 600; fill: #e2e8f0; }
    .data-type { font-family: 'IBM Plex Mono', 'Consolas', monospace; font-size: 11px; fill: #93c5fd; font-weight: 600; }
    .error-tag { font-family: 'Source Sans 3', 'Segoe UI', sans-serif; font-size: 11px; font-weight: 700; fill: #ef4444; }
    .error-desc { font-family: 'Source Sans 3', 'Segoe UI', sans-serif; font-size: 11px; fill: #fca5a5; }
    .boundary-text { font-family: 'Source Sans 3', 'Segoe UI', sans-serif; font-size: 12px; font-weight: 700; fill: #e2e8f0; letter-spacing: 1px; }
    .subtext-label { font-family: 'IBM Plex Mono', 'Consolas', monospace; font-size: 10px; font-weight: 600; fill: #94a3b8; }
  </style>

  <g transform="translate(40, 45)">
    <text x="0" y="0" class="title">Quantization: End-to-End Pipeline</text>
    <text x="0" y="22" class="subtitle">Algorithmic transformation and discrete hardware constraints across a single layer</text>
  </g>

  <line x1="60" y1="120" x2="60" y2="870" stroke="#334155" stroke-width="2" stroke-dasharray="4,4"/>
  <rect x="45" y="340" width="30" height="110" rx="4" fill="#1e293b"/>
  <text x="60" y="395" transform="rotate(-90 60 395)" text-anchor="middle" class="boundary-text" fill="#64748b">GRAPH BOUNDARY</text>

  <rect x="90" y="130" width="170" height="70" rx="6" fill="#1e293b" stroke="#475569" stroke-width="1.5"/>
  <text x="105" y="160" class="node-text-title">Static Weights</text>
  <text x="105" y="182" class="data-type">FLOAT32 (Constant)</text>

  <line x1="260" y1="165" x2="330" y2="165" stroke="#64748b" stroke-width="2" marker-end="url(#arrow)"/>

  <rect x="330" y="130" width="190" height="70" rx="6" fill="#1e293b" stroke="#475569" stroke-width="1.5"/>
  <text x="345" y="160" class="node-text-title">Affine Parameter Derivation</text>
  <text x="345" y="182" class="node-text-ch">Chapter 3: Scale &amp; ZP</text>

  <line x1="520" y1="165" x2="670" y2="165" stroke="#dc2626" stroke-width="2" marker-end="url(#arrow-error)"/>
  <text x="535" y="143" class="error-tag">▲ ROUNDING ERROR</text>
  <text x="535" y="156" class="error-desc">Grid Discretization</text>

  <rect x="670" y="140" width="250" height="70" rx="6" fill="#1e293b" stroke="#475569" stroke-width="1.5"/>
  <text x="685" y="170" class="node-text-title">Quantized Weights</text>
  <text x="685" y="192" class="data-type">INT8 (Discrete Grid)</text>


  <rect x="90" y="230" width="170" height="70" rx="6" fill="#1e293b" stroke="#475569" stroke-width="1.5"/>
  <text x="105" y="260" class="node-text-title">Layer Activations</text>
  <text x="105" y="282" class="data-type">FLOAT32 (Dynamic)</text>

  <line x1="260" y1="265" x2="330" y2="265" stroke="#64748b" stroke-width="2" marker-end="url(#arrow)"/>

  <rect x="330" y="230" width="190" height="70" rx="6" fill="#1e293b" stroke="#475569" stroke-width="1.5"/>
  <text x="345" y="260" class="node-text-title">Range Calibration / Observer</text>
  <text x="345" y="282" class="node-text-ch">Chapter 9: Calibration</text>

  <line x1="520" y1="265" x2="670" y2="265" stroke="#dc2626" stroke-width="2" marker-end="url(#arrow-error)"/>
  <text x="535" y="243" class="error-tag">▲ CLIPPING ERROR</text>
  <text x="535" y="256" class="error-desc">Dynamic Range Truncation</text>

  <rect x="670" y="240" width="250" height="70" rx="6" fill="#1e293b" stroke="#475569" stroke-width="1.5"/>
  <text x="685" y="270" class="node-text-title">Quantized Activations</text>
  <text x="685" y="292" class="data-type">INT8 (Discrete Grid)</text>


  <path d="M 795 210 L 795 240" stroke="#3b82f6" stroke-width="2" fill="none" marker-end="url(#arrow-cyan)"/>
  <path d="M 795 310 L 795 340" stroke="#3b82f6" stroke-width="2" fill="none" marker-end="url(#arrow-cyan)"/>

  <rect x="670" y="340" width="250" height="70" rx="6" fill="#1e293b" stroke="#475569" stroke-width="1.5"/>
  <text x="685" y="370" class="node-text-title">MAC Execution Engine</text>
  <text x="685" y="392" class="node-text-ch">Chapter 4: Hardware Arithmetic</text>

  <line x1="795" y1="410" x2="795" y2="440" stroke="#3b82f6" stroke-width="2" marker-end="url(#arrow-cyan)"/>

  <rect x="670" y="440" width="250" height="70" rx="6" fill="#1e293b" stroke="#475569" stroke-width="1.5"/>
  <text x="685" y="470" class="node-text-title">INT32 Accumulator Register</text>
  <text x="685" y="492" class="node-text-ch">CHAPTER 6</text>

  <line x1="795" y1="510" x2="795" y2="570" stroke="#dc2626" stroke-width="2" marker-end="url(#arrow-error)"/>
  <text x="590" y="537" class="error-tag">▲ ACCUMULATED ROUNDING ERROR</text>
  <text x="590" y="550" class="error-desc">Downscaling / Down-shifting Bits</text>

  <rect x="670" y="570" width="250" height="70" rx="6" fill="#1e293b" stroke="#475569" stroke-width="1.5"/>
  <text x="685" y="600" class="node-text-title">Requantization / Downscaling Pipeline</text>
  <text x="685" y="622" class="node-text-ch">Chapter 7: Requantization</text>


  <line x1="795" y1="640" x2="795" y2="670" stroke="#3b82f6" stroke-width="2" marker-end="url(#arrow-cyan)"/>

  <rect x="670" y="670" width="250" height="70" rx="6" fill="#1e293b" stroke="#475569" stroke-width="1.5"/>
  <text x="685" y="700" class="node-text-title">Fused Nonlinearities</text>
  <text x="685" y="722" class="node-text-ch">Chapter 8: Elementwise Fusion</text>

  <line x1="795" y1="740" x2="795" y2="770" stroke="#3b82f6" stroke-width="2" marker-end="url(#arrow-cyan)"/>

  <rect x="670" y="770" width="250" height="70" rx="6" fill="#1e293b" stroke="#475569" stroke-width="1.5"/>
  <text x="685" y="800" class="node-text-title">Layer Output Tensor</text>
  <text x="685" y="822" class="data-type">INT8 (Compressed Segment)</text>


  <line x1="795" y1="840" x2="795" y2="870" stroke="#64748b" stroke-width="2" stroke-dasharray="4,4" marker-end="url(#arrow)"/>

  <g transform="translate(40, 870)">
    <line x1="20" y1="5" x2="860" y2="5" stroke="#334155" stroke-width="2" stroke-dasharray="4,4"/>
    <rect x="400" y="-8" width="140" height="24" rx="4" fill="#1e293b"/>
    <text x="470" y="8" text-anchor="middle" class="boundary-text" fill="#64748b">NEXT LAYER BOUNDARY</text>
  </g>
</svg>
